<mxfile host="app.diagrams.net" modified="2024-03-04T18:35:26.168Z" agent="Mozilla/5.0 (Windows NT 10.0; Win64; x64) AppleWebKit/537.36 (KHTML, like Gecko) Chrome/122.0.0.0 Safari/537.36" etag="BDrCndM4sAt2-8ZwBabE" version="24.0.1" type="github">
  <diagram id="kgpKYQtTHZ0yAKxKKP6v" name="Page-1">
    <mxGraphModel dx="1985" dy="1050" grid="1" gridSize="10" guides="1" tooltips="1" connect="1" arrows="1" fold="1" page="1" pageScale="1" pageWidth="850" pageHeight="1100" math="0" shadow="0">
      <root>
        <mxCell id="0" />
        <mxCell id="1" parent="0" />
        <mxCell id="ECI6RwzeLNWX5W3u-wyY-4" value="" style="edgeStyle=orthogonalEdgeStyle;rounded=0;orthogonalLoop=1;jettySize=auto;html=1;" edge="1" parent="1" source="ECI6RwzeLNWX5W3u-wyY-1" target="ECI6RwzeLNWX5W3u-wyY-3">
          <mxGeometry relative="1" as="geometry" />
        </mxCell>
        <mxCell id="ECI6RwzeLNWX5W3u-wyY-1" value="&lt;font style=&quot;vertical-align: inherit;&quot;&gt;&lt;font style=&quot;vertical-align: inherit;&quot;&gt;&lt;font style=&quot;vertical-align: inherit;&quot;&gt;&lt;font style=&quot;vertical-align: inherit;&quot;&gt;Início&lt;/font&gt;&lt;/font&gt;&lt;/font&gt;&lt;/font&gt;" style="strokeWidth=2;html=1;shape=mxgraph.flowchart.terminator;whiteSpace=wrap;" vertex="1" parent="1">
          <mxGeometry x="60" y="120" width="100" height="50" as="geometry" />
        </mxCell>
        <mxCell id="ECI6RwzeLNWX5W3u-wyY-7" value="" style="edgeStyle=orthogonalEdgeStyle;rounded=0;orthogonalLoop=1;jettySize=auto;html=1;" edge="1" parent="1" source="ECI6RwzeLNWX5W3u-wyY-2">
          <mxGeometry relative="1" as="geometry">
            <mxPoint x="270" y="435" as="targetPoint" />
          </mxGeometry>
        </mxCell>
        <mxCell id="ECI6RwzeLNWX5W3u-wyY-10" value="" style="edgeStyle=orthogonalEdgeStyle;rounded=0;orthogonalLoop=1;jettySize=auto;html=1;" edge="1" parent="1" source="ECI6RwzeLNWX5W3u-wyY-2" target="ECI6RwzeLNWX5W3u-wyY-9">
          <mxGeometry relative="1" as="geometry" />
        </mxCell>
        <mxCell id="ECI6RwzeLNWX5W3u-wyY-2" value="&lt;font style=&quot;vertical-align: inherit;&quot;&gt;&lt;font style=&quot;vertical-align: inherit;&quot;&gt;&lt;font style=&quot;vertical-align: inherit;&quot;&gt;&lt;font style=&quot;vertical-align: inherit;&quot;&gt;&lt;font style=&quot;vertical-align: inherit;&quot;&gt;&lt;font style=&quot;vertical-align: inherit;&quot;&gt;Consegue identificar o problema&amp;nbsp;&lt;/font&gt;&lt;/font&gt;&lt;/font&gt;&lt;/font&gt;&lt;/font&gt;&lt;/font&gt;&lt;div&gt;&lt;font style=&quot;vertical-align: inherit;&quot;&gt;&lt;font style=&quot;vertical-align: inherit;&quot;&gt;&lt;font style=&quot;vertical-align: inherit;&quot;&gt;&lt;font style=&quot;vertical-align: inherit;&quot;&gt;&lt;font style=&quot;vertical-align: inherit;&quot;&gt;&lt;font style=&quot;vertical-align: inherit;&quot;&gt;&lt;font style=&quot;vertical-align: inherit;&quot;&gt;&lt;font style=&quot;vertical-align: inherit;&quot;&gt;da caneta&lt;/font&gt;&lt;/font&gt;&lt;/font&gt;&lt;/font&gt;&lt;/font&gt;&lt;/font&gt;&lt;/font&gt;&lt;/font&gt;&lt;/div&gt;" style="strokeWidth=2;html=1;shape=mxgraph.flowchart.decision;whiteSpace=wrap;" vertex="1" parent="1">
          <mxGeometry x="55" y="380" width="110" height="110" as="geometry" />
        </mxCell>
        <mxCell id="ECI6RwzeLNWX5W3u-wyY-5" value="" style="edgeStyle=orthogonalEdgeStyle;rounded=0;orthogonalLoop=1;jettySize=auto;html=1;" edge="1" parent="1" source="ECI6RwzeLNWX5W3u-wyY-3" target="ECI6RwzeLNWX5W3u-wyY-2">
          <mxGeometry relative="1" as="geometry" />
        </mxCell>
        <mxCell id="ECI6RwzeLNWX5W3u-wyY-3" value="&lt;font style=&quot;vertical-align: inherit;&quot;&gt;&lt;font style=&quot;vertical-align: inherit;&quot;&gt;&lt;font style=&quot;vertical-align: inherit;&quot;&gt;&lt;font style=&quot;vertical-align: inherit;&quot;&gt;Atender o cliente para compreender o problema.&lt;/font&gt;&lt;/font&gt;&lt;/font&gt;&lt;/font&gt;" style="shape=ext;double=1;rounded=0;whiteSpace=wrap;html=1;" vertex="1" parent="1">
          <mxGeometry x="50" y="240" width="120" height="80" as="geometry" />
        </mxCell>
        <mxCell id="ECI6RwzeLNWX5W3u-wyY-8" value="&lt;font style=&quot;vertical-align: inherit;&quot;&gt;&lt;font style=&quot;vertical-align: inherit;&quot;&gt;Sim&lt;/font&gt;&lt;/font&gt;" style="text;html=1;align=center;verticalAlign=middle;resizable=0;points=[];autosize=1;strokeColor=none;fillColor=none;" vertex="1" parent="1">
          <mxGeometry x="160" y="408" width="40" height="30" as="geometry" />
        </mxCell>
        <mxCell id="ECI6RwzeLNWX5W3u-wyY-25" value="" style="edgeStyle=orthogonalEdgeStyle;rounded=0;orthogonalLoop=1;jettySize=auto;html=1;" edge="1" parent="1" source="ECI6RwzeLNWX5W3u-wyY-9" target="ECI6RwzeLNWX5W3u-wyY-24">
          <mxGeometry relative="1" as="geometry" />
        </mxCell>
        <mxCell id="ECI6RwzeLNWX5W3u-wyY-9" value="&lt;font style=&quot;vertical-align: inherit;&quot;&gt;&lt;font style=&quot;vertical-align: inherit;&quot;&gt;fornecer mais informações&lt;/font&gt;&lt;/font&gt;" style="whiteSpace=wrap;html=1;strokeWidth=2;" vertex="1" parent="1">
          <mxGeometry x="50" y="595" width="120" height="60" as="geometry" />
        </mxCell>
        <mxCell id="ECI6RwzeLNWX5W3u-wyY-11" value="&lt;font style=&quot;vertical-align: inherit;&quot;&gt;&lt;font style=&quot;vertical-align: inherit;&quot;&gt;&lt;font style=&quot;vertical-align: inherit;&quot;&gt;&lt;font style=&quot;vertical-align: inherit;&quot;&gt;Não&lt;/font&gt;&lt;/font&gt;&lt;/font&gt;&lt;/font&gt;" style="text;html=1;align=center;verticalAlign=middle;resizable=0;points=[];autosize=1;strokeColor=none;fillColor=none;" vertex="1" parent="1">
          <mxGeometry x="95" y="498" width="50" height="30" as="geometry" />
        </mxCell>
        <mxCell id="ECI6RwzeLNWX5W3u-wyY-14" value="" style="edgeStyle=orthogonalEdgeStyle;rounded=0;orthogonalLoop=1;jettySize=auto;html=1;" edge="1" parent="1" source="ECI6RwzeLNWX5W3u-wyY-12">
          <mxGeometry relative="1" as="geometry">
            <mxPoint x="470" y="435" as="targetPoint" />
          </mxGeometry>
        </mxCell>
        <mxCell id="ECI6RwzeLNWX5W3u-wyY-12" value="&lt;font style=&quot;vertical-align: inherit;&quot;&gt;&lt;font style=&quot;vertical-align: inherit;&quot;&gt;a caneta não escreve em papel&lt;/font&gt;&lt;/font&gt;" style="shape=ext;double=1;rounded=0;whiteSpace=wrap;html=1;" vertex="1" parent="1">
          <mxGeometry x="270" y="402.5" width="120" height="65" as="geometry" />
        </mxCell>
        <mxCell id="ECI6RwzeLNWX5W3u-wyY-17" value="" style="edgeStyle=orthogonalEdgeStyle;rounded=0;orthogonalLoop=1;jettySize=auto;html=1;" edge="1" parent="1" source="ECI6RwzeLNWX5W3u-wyY-15" target="ECI6RwzeLNWX5W3u-wyY-16">
          <mxGeometry relative="1" as="geometry" />
        </mxCell>
        <mxCell id="ECI6RwzeLNWX5W3u-wyY-18" value="&lt;font style=&quot;vertical-align: inherit;&quot;&gt;&lt;font style=&quot;vertical-align: inherit;&quot;&gt;Sim&lt;/font&gt;&lt;/font&gt;" style="edgeLabel;html=1;align=center;verticalAlign=middle;resizable=0;points=[];" vertex="1" connectable="0" parent="ECI6RwzeLNWX5W3u-wyY-17">
          <mxGeometry x="-0.3544" y="3" relative="1" as="geometry">
            <mxPoint y="-9" as="offset" />
          </mxGeometry>
        </mxCell>
        <mxCell id="ECI6RwzeLNWX5W3u-wyY-20" value="" style="edgeStyle=orthogonalEdgeStyle;rounded=0;orthogonalLoop=1;jettySize=auto;html=1;" edge="1" parent="1" source="ECI6RwzeLNWX5W3u-wyY-15" target="ECI6RwzeLNWX5W3u-wyY-19">
          <mxGeometry relative="1" as="geometry" />
        </mxCell>
        <mxCell id="ECI6RwzeLNWX5W3u-wyY-15" value="&lt;font style=&quot;vertical-align: inherit;&quot;&gt;&lt;font style=&quot;vertical-align: inherit;&quot;&gt;A caneta tem tinta?&lt;/font&gt;&lt;/font&gt;" style="html=1;whiteSpace=wrap;aspect=fixed;shape=isoRectangle;" vertex="1" parent="1">
          <mxGeometry x="470" y="390" width="150" height="90" as="geometry" />
        </mxCell>
        <mxCell id="ECI6RwzeLNWX5W3u-wyY-63" style="edgeStyle=orthogonalEdgeStyle;rounded=0;orthogonalLoop=1;jettySize=auto;html=1;entryX=0.5;entryY=0;entryDx=0;entryDy=0;" edge="1" parent="1" source="ECI6RwzeLNWX5W3u-wyY-16" target="ECI6RwzeLNWX5W3u-wyY-61">
          <mxGeometry relative="1" as="geometry" />
        </mxCell>
        <mxCell id="ECI6RwzeLNWX5W3u-wyY-16" value="&lt;font style=&quot;vertical-align: inherit;&quot;&gt;&lt;font style=&quot;vertical-align: inherit;&quot;&gt;Possivel problema na caneta&lt;/font&gt;&lt;/font&gt;" style="whiteSpace=wrap;html=1;" vertex="1" parent="1">
          <mxGeometry x="715" y="405" width="120" height="60" as="geometry" />
        </mxCell>
        <mxCell id="ECI6RwzeLNWX5W3u-wyY-23" value="" style="edgeStyle=orthogonalEdgeStyle;rounded=0;orthogonalLoop=1;jettySize=auto;html=1;" edge="1" parent="1" source="ECI6RwzeLNWX5W3u-wyY-19" target="ECI6RwzeLNWX5W3u-wyY-31">
          <mxGeometry relative="1" as="geometry">
            <mxPoint x="850" y="605" as="targetPoint" />
            <Array as="points">
              <mxPoint x="545" y="730" />
              <mxPoint x="850" y="730" />
            </Array>
          </mxGeometry>
        </mxCell>
        <mxCell id="ECI6RwzeLNWX5W3u-wyY-19" value="&lt;font style=&quot;vertical-align: inherit;&quot;&gt;&lt;font style=&quot;vertical-align: inherit;&quot;&gt;&lt;font style=&quot;vertical-align: inherit;&quot;&gt;&lt;font style=&quot;vertical-align: inherit;&quot;&gt;Recomenda a troca do tubo de carga.&lt;/font&gt;&lt;/font&gt;&lt;/font&gt;&lt;/font&gt;" style="whiteSpace=wrap;html=1;" vertex="1" parent="1">
          <mxGeometry x="485" y="620" width="120" height="60" as="geometry" />
        </mxCell>
        <mxCell id="ECI6RwzeLNWX5W3u-wyY-21" value="&lt;font style=&quot;vertical-align: inherit;&quot;&gt;&lt;font style=&quot;vertical-align: inherit;&quot;&gt;Não&lt;/font&gt;&lt;/font&gt;" style="text;html=1;align=center;verticalAlign=middle;resizable=0;points=[];autosize=1;strokeColor=none;fillColor=none;" vertex="1" parent="1">
          <mxGeometry x="535" y="498" width="50" height="30" as="geometry" />
        </mxCell>
        <mxCell id="ECI6RwzeLNWX5W3u-wyY-27" value="" style="edgeStyle=orthogonalEdgeStyle;rounded=0;orthogonalLoop=1;jettySize=auto;html=1;" edge="1" parent="1" source="ECI6RwzeLNWX5W3u-wyY-24" target="ECI6RwzeLNWX5W3u-wyY-26">
          <mxGeometry relative="1" as="geometry" />
        </mxCell>
        <mxCell id="ECI6RwzeLNWX5W3u-wyY-24" value="&lt;font style=&quot;vertical-align: inherit;&quot;&gt;&lt;font style=&quot;vertical-align: inherit;&quot;&gt;Caneta não escreve&lt;/font&gt;&lt;/font&gt;" style="whiteSpace=wrap;html=1;strokeWidth=2;" vertex="1" parent="1">
          <mxGeometry x="50" y="735" width="120" height="60" as="geometry" />
        </mxCell>
        <mxCell id="ECI6RwzeLNWX5W3u-wyY-29" value="" style="edgeStyle=orthogonalEdgeStyle;rounded=0;orthogonalLoop=1;jettySize=auto;html=1;" edge="1" parent="1" source="ECI6RwzeLNWX5W3u-wyY-26" target="ECI6RwzeLNWX5W3u-wyY-28">
          <mxGeometry relative="1" as="geometry">
            <Array as="points">
              <mxPoint x="200" y="908" />
              <mxPoint x="200" y="908" />
            </Array>
          </mxGeometry>
        </mxCell>
        <mxCell id="ECI6RwzeLNWX5W3u-wyY-38" value="" style="edgeStyle=orthogonalEdgeStyle;rounded=0;orthogonalLoop=1;jettySize=auto;html=1;" edge="1" parent="1" source="ECI6RwzeLNWX5W3u-wyY-26">
          <mxGeometry relative="1" as="geometry">
            <mxPoint x="110" y="1035" as="targetPoint" />
          </mxGeometry>
        </mxCell>
        <mxCell id="ECI6RwzeLNWX5W3u-wyY-40" value="" style="edgeStyle=orthogonalEdgeStyle;rounded=0;orthogonalLoop=1;jettySize=auto;html=1;" edge="1" parent="1" source="ECI6RwzeLNWX5W3u-wyY-26">
          <mxGeometry relative="1" as="geometry">
            <mxPoint x="110" y="1035" as="targetPoint" />
          </mxGeometry>
        </mxCell>
        <mxCell id="ECI6RwzeLNWX5W3u-wyY-26" value="&lt;font style=&quot;vertical-align: inherit;&quot;&gt;&lt;font style=&quot;vertical-align: inherit;&quot;&gt;Fez uso em papel?&lt;/font&gt;&lt;/font&gt;" style="rhombus;whiteSpace=wrap;html=1;strokeWidth=2;" vertex="1" parent="1">
          <mxGeometry x="70" y="865" width="80" height="85" as="geometry" />
        </mxCell>
        <mxCell id="ECI6RwzeLNWX5W3u-wyY-35" style="edgeStyle=orthogonalEdgeStyle;rounded=0;orthogonalLoop=1;jettySize=auto;html=1;" edge="1" parent="1" source="ECI6RwzeLNWX5W3u-wyY-28" target="ECI6RwzeLNWX5W3u-wyY-31">
          <mxGeometry relative="1" as="geometry" />
        </mxCell>
        <mxCell id="ECI6RwzeLNWX5W3u-wyY-28" value="&lt;font style=&quot;vertical-align: inherit;&quot;&gt;&lt;font style=&quot;vertical-align: inherit;&quot;&gt;A caneta só escreve em papel.&lt;/font&gt;&lt;/font&gt;" style="whiteSpace=wrap;html=1;strokeWidth=2;" vertex="1" parent="1">
          <mxGeometry x="210" y="875" width="130" height="60" as="geometry" />
        </mxCell>
        <mxCell id="ECI6RwzeLNWX5W3u-wyY-32" style="edgeStyle=orthogonalEdgeStyle;rounded=0;orthogonalLoop=1;jettySize=auto;html=1;" edge="1" parent="1" source="ECI6RwzeLNWX5W3u-wyY-31">
          <mxGeometry relative="1" as="geometry">
            <mxPoint x="1240" y="760" as="targetPoint" />
            <Array as="points">
              <mxPoint x="1240" y="905" />
            </Array>
          </mxGeometry>
        </mxCell>
        <mxCell id="ECI6RwzeLNWX5W3u-wyY-31" value="&lt;font style=&quot;vertical-align: inherit;&quot;&gt;&lt;font style=&quot;vertical-align: inherit;&quot;&gt;Orientar o cliente&lt;/font&gt;&lt;/font&gt;" style="shape=ext;double=1;rounded=0;whiteSpace=wrap;html=1;" vertex="1" parent="1">
          <mxGeometry x="790" y="865" width="120" height="80" as="geometry" />
        </mxCell>
        <mxCell id="ECI6RwzeLNWX5W3u-wyY-34" value="&lt;font style=&quot;vertical-align: inherit;&quot;&gt;&lt;font style=&quot;vertical-align: inherit;&quot;&gt;Fim&lt;/font&gt;&lt;/font&gt;" style="strokeWidth=2;html=1;shape=mxgraph.flowchart.terminator;whiteSpace=wrap;" vertex="1" parent="1">
          <mxGeometry x="1200" y="700" width="100" height="60" as="geometry" />
        </mxCell>
        <mxCell id="ECI6RwzeLNWX5W3u-wyY-36" value="&lt;font style=&quot;vertical-align: inherit;&quot;&gt;&lt;font style=&quot;vertical-align: inherit;&quot;&gt;Não&lt;/font&gt;&lt;/font&gt;" style="text;html=1;align=center;verticalAlign=middle;resizable=0;points=[];autosize=1;strokeColor=none;fillColor=none;" vertex="1" parent="1">
          <mxGeometry x="135" y="878" width="50" height="30" as="geometry" />
        </mxCell>
        <mxCell id="ECI6RwzeLNWX5W3u-wyY-39" value="" style="edgeStyle=orthogonalEdgeStyle;rounded=0;orthogonalLoop=1;jettySize=auto;html=1;" edge="1" parent="1" target="ECI6RwzeLNWX5W3u-wyY-26">
          <mxGeometry relative="1" as="geometry">
            <mxPoint x="110" y="1035" as="sourcePoint" />
          </mxGeometry>
        </mxCell>
        <mxCell id="ECI6RwzeLNWX5W3u-wyY-41" value="&lt;font style=&quot;vertical-align: inherit;&quot;&gt;&lt;font style=&quot;vertical-align: inherit;&quot;&gt;Sim&lt;/font&gt;&lt;/font&gt;" style="text;html=1;align=center;verticalAlign=middle;resizable=0;points=[];autosize=1;strokeColor=none;fillColor=none;" vertex="1" parent="1">
          <mxGeometry x="110" y="958" width="40" height="30" as="geometry" />
        </mxCell>
        <mxCell id="ECI6RwzeLNWX5W3u-wyY-44" value="" style="edgeStyle=orthogonalEdgeStyle;rounded=0;orthogonalLoop=1;jettySize=auto;html=1;" edge="1" parent="1" source="ECI6RwzeLNWX5W3u-wyY-42" target="ECI6RwzeLNWX5W3u-wyY-43">
          <mxGeometry relative="1" as="geometry" />
        </mxCell>
        <mxCell id="ECI6RwzeLNWX5W3u-wyY-47" style="edgeStyle=orthogonalEdgeStyle;rounded=0;orthogonalLoop=1;jettySize=auto;html=1;" edge="1" parent="1" source="ECI6RwzeLNWX5W3u-wyY-42">
          <mxGeometry relative="1" as="geometry">
            <mxPoint x="110" y="1200" as="targetPoint" />
          </mxGeometry>
        </mxCell>
        <mxCell id="ECI6RwzeLNWX5W3u-wyY-42" value="&lt;font style=&quot;vertical-align: inherit;&quot;&gt;&lt;font style=&quot;vertical-align: inherit;&quot;&gt;A caneta tem tinta?&lt;/font&gt;&lt;/font&gt;" style="rhombus;whiteSpace=wrap;html=1;strokeWidth=2;" vertex="1" parent="1">
          <mxGeometry x="70" y="1040" width="80" height="85" as="geometry" />
        </mxCell>
        <mxCell id="ECI6RwzeLNWX5W3u-wyY-45" style="edgeStyle=orthogonalEdgeStyle;rounded=0;orthogonalLoop=1;jettySize=auto;html=1;entryX=0.5;entryY=1;entryDx=0;entryDy=0;" edge="1" parent="1" source="ECI6RwzeLNWX5W3u-wyY-43" target="ECI6RwzeLNWX5W3u-wyY-31">
          <mxGeometry relative="1" as="geometry" />
        </mxCell>
        <mxCell id="ECI6RwzeLNWX5W3u-wyY-43" value="&lt;font style=&quot;vertical-align: inherit;&quot;&gt;&lt;font style=&quot;vertical-align: inherit;&quot;&gt;Recomenda a troca do tubo de carga.&lt;/font&gt;&lt;/font&gt;" style="whiteSpace=wrap;html=1;strokeWidth=2;" vertex="1" parent="1">
          <mxGeometry x="210" y="1052.5" width="120" height="60" as="geometry" />
        </mxCell>
        <mxCell id="ECI6RwzeLNWX5W3u-wyY-46" value="&lt;font style=&quot;vertical-align: inherit;&quot;&gt;&lt;font style=&quot;vertical-align: inherit;&quot;&gt;Não&lt;/font&gt;&lt;/font&gt;" style="text;html=1;align=center;verticalAlign=middle;resizable=0;points=[];autosize=1;strokeColor=none;fillColor=none;" vertex="1" parent="1">
          <mxGeometry x="145" y="1058" width="50" height="30" as="geometry" />
        </mxCell>
        <mxCell id="ECI6RwzeLNWX5W3u-wyY-48" value="&lt;font style=&quot;vertical-align: inherit;&quot;&gt;&lt;font style=&quot;vertical-align: inherit;&quot;&gt;Sim&lt;/font&gt;&lt;/font&gt;" style="text;html=1;align=center;verticalAlign=middle;resizable=0;points=[];autosize=1;strokeColor=none;fillColor=none;" vertex="1" parent="1">
          <mxGeometry x="100" y="1128" width="40" height="30" as="geometry" />
        </mxCell>
        <mxCell id="ECI6RwzeLNWX5W3u-wyY-50" style="edgeStyle=orthogonalEdgeStyle;rounded=0;orthogonalLoop=1;jettySize=auto;html=1;" edge="1" parent="1" source="ECI6RwzeLNWX5W3u-wyY-49">
          <mxGeometry relative="1" as="geometry">
            <mxPoint x="110" y="1300.0000000000002" as="targetPoint" />
          </mxGeometry>
        </mxCell>
        <mxCell id="ECI6RwzeLNWX5W3u-wyY-49" value="&lt;font style=&quot;vertical-align: inherit;&quot;&gt;&lt;font style=&quot;vertical-align: inherit;&quot;&gt;Verificar a ponta&lt;/font&gt;&lt;/font&gt;" style="whiteSpace=wrap;html=1;" vertex="1" parent="1">
          <mxGeometry x="50" y="1170" width="120" height="60" as="geometry" />
        </mxCell>
        <mxCell id="ECI6RwzeLNWX5W3u-wyY-56" style="edgeStyle=orthogonalEdgeStyle;rounded=0;orthogonalLoop=1;jettySize=auto;html=1;" edge="1" parent="1" source="ECI6RwzeLNWX5W3u-wyY-51">
          <mxGeometry relative="1" as="geometry">
            <mxPoint x="110" y="1440.0000000000002" as="targetPoint" />
          </mxGeometry>
        </mxCell>
        <mxCell id="ECI6RwzeLNWX5W3u-wyY-51" value="&lt;font style=&quot;vertical-align: inherit;&quot;&gt;&lt;font style=&quot;vertical-align: inherit;&quot;&gt;Ponta quebrada?&lt;/font&gt;&lt;/font&gt;" style="rhombus;whiteSpace=wrap;html=1;strokeWidth=2;" vertex="1" parent="1">
          <mxGeometry x="70" y="1300" width="80" height="80" as="geometry" />
        </mxCell>
        <mxCell id="ECI6RwzeLNWX5W3u-wyY-64" style="edgeStyle=orthogonalEdgeStyle;rounded=0;orthogonalLoop=1;jettySize=auto;html=1;entryX=0.5;entryY=1;entryDx=0;entryDy=0;exitX=0.028;exitY=0.744;exitDx=0;exitDy=0;exitPerimeter=0;" edge="1" parent="1" source="ECI6RwzeLNWX5W3u-wyY-53" target="ECI6RwzeLNWX5W3u-wyY-61">
          <mxGeometry relative="1" as="geometry" />
        </mxCell>
        <mxCell id="ECI6RwzeLNWX5W3u-wyY-53" value="&lt;font style=&quot;vertical-align: inherit;&quot;&gt;&lt;font style=&quot;vertical-align: inherit;&quot;&gt;Não&lt;/font&gt;&lt;/font&gt;" style="text;html=1;align=center;verticalAlign=middle;resizable=0;points=[];autosize=1;strokeColor=none;fillColor=none;" vertex="1" parent="1">
          <mxGeometry x="155" y="1318" width="50" height="30" as="geometry" />
        </mxCell>
        <mxCell id="ECI6RwzeLNWX5W3u-wyY-55" value="&lt;font style=&quot;vertical-align: inherit;&quot;&gt;&lt;font style=&quot;vertical-align: inherit;&quot;&gt;Sim&lt;/font&gt;&lt;/font&gt;" style="text;html=1;align=center;verticalAlign=middle;resizable=0;points=[];autosize=1;strokeColor=none;fillColor=none;" vertex="1" parent="1">
          <mxGeometry x="100" y="1398" width="40" height="30" as="geometry" />
        </mxCell>
        <mxCell id="ECI6RwzeLNWX5W3u-wyY-65" style="edgeStyle=orthogonalEdgeStyle;rounded=0;orthogonalLoop=1;jettySize=auto;html=1;exitX=0.5;exitY=1;exitDx=0;exitDy=0;" edge="1" parent="1" source="ECI6RwzeLNWX5W3u-wyY-59">
          <mxGeometry relative="1" as="geometry">
            <mxPoint x="850" y="1091.3333740234375" as="targetPoint" />
          </mxGeometry>
        </mxCell>
        <mxCell id="ECI6RwzeLNWX5W3u-wyY-59" value="&lt;font style=&quot;vertical-align: inherit;&quot;&gt;&lt;font style=&quot;vertical-align: inherit;&quot;&gt;Orientar a troca da ponta.&lt;/font&gt;&lt;/font&gt;" style="whiteSpace=wrap;html=1;" vertex="1" parent="1">
          <mxGeometry x="55" y="1440" width="120" height="60" as="geometry" />
        </mxCell>
        <mxCell id="ECI6RwzeLNWX5W3u-wyY-61" value="&lt;font style=&quot;vertical-align: inherit;&quot;&gt;&lt;font style=&quot;vertical-align: inherit;&quot;&gt;Trocar o produto&lt;/font&gt;&lt;/font&gt;" style="whiteSpace=wrap;html=1;" vertex="1" parent="1">
          <mxGeometry x="980" y="700" width="120" height="60" as="geometry" />
        </mxCell>
        <mxCell id="ECI6RwzeLNWX5W3u-wyY-66" style="edgeStyle=orthogonalEdgeStyle;rounded=0;orthogonalLoop=1;jettySize=auto;html=1;entryX=0;entryY=0.5;entryDx=0;entryDy=0;entryPerimeter=0;" edge="1" parent="1" source="ECI6RwzeLNWX5W3u-wyY-61" target="ECI6RwzeLNWX5W3u-wyY-34">
          <mxGeometry relative="1" as="geometry" />
        </mxCell>
      </root>
    </mxGraphModel>
  </diagram>
</mxfile>
